<svg width="32" height="32" viewBox="0 0 32 32" fill="none" xmlns="http://www.w3.org/2000/svg">
<path d="M14.565 0.0415125C12.5038 0.227759 10.6441 0.696824 8.86959 1.49009C3.91805 3.69056 0.617032 7.98112 0.0823588 12.9201C-0.0261256 13.8858 -0.0261256 18.0729 0.0746099 19.0662C0.779758 25.7918 6.56817 31.0964 14.1001 31.9241C14.5185 31.9724 17.8195 32 23.3755 32H32V22.7981C32 13.5685 31.9845 12.8649 31.721 11.5819C30.5665 6.01519 25.6072 1.4832 19.3693 0.303637C18.0443 0.0484105 15.8048 -0.0688557 14.565 0.0415125ZM17.9358 6.76707C21.7405 7.42928 24.7858 10.2299 25.4522 13.6789C25.5452 14.1824 25.5684 15.0792 25.5684 18.9007V23.5154H26.8083H28.0481V24.9295V26.3436H25.2662H22.4766L22.4534 20.3217C22.4224 14.3618 22.4224 14.2997 22.2519 13.7548C21.4383 11.1404 19.0129 9.4366 16.076 9.41591C15.5181 9.41591 15.0145 9.4573 14.6038 9.54007C13.8289 9.69183 12.5736 10.2299 11.9691 10.6645C10.6363 11.6302 9.75296 13.1063 9.61348 14.617L9.56699 15.1344L8.00172 15.1551L6.42869 15.1689V14.7343C6.42869 13.2995 7.21908 11.3267 8.30392 10.0298C9.25703 8.89856 10.7293 7.85696 12.1629 7.29822C14.0071 6.58773 15.9211 6.40838 17.9358 6.76707ZM17.1764 15.6517C19.1988 16.5416 19.1756 19.0524 17.1376 19.9423C16.6805 20.1423 16.5487 20.1699 15.9986 20.1699C15.4484 20.1699 15.3167 20.1423 14.8595 19.9423C14.2861 19.6939 13.8289 19.2801 13.5422 18.7696C13.2865 18.3005 13.2865 17.2796 13.5422 16.8175C14.2473 15.5551 15.8048 15.0516 17.1764 15.6517Z" fill="#3F5298"/>
</svg>
