<svg width="551" height="619" viewBox="0 0 551 619" fill="none" xmlns="http://www.w3.org/2000/svg">
<path d="M250.617 0.802401C215.15 4.4024 183.15 13.4691 152.617 28.8024C67.4171 71.3357 10.6171 154.269 1.41713 249.736C-0.449537 268.402 -0.449537 349.336 1.2838 368.536C13.4171 498.536 113.017 601.069 242.617 617.069C249.817 618.002 306.617 618.536 402.217 618.536H550.617V440.669C550.617 262.269 550.35 248.669 545.817 223.869C525.95 116.269 440.617 28.6691 333.284 5.86907C310.484 0.935734 271.95 -1.33093 250.617 0.802401ZM308.617 130.802C374.084 143.602 426.484 197.736 437.95 264.402C439.55 274.136 439.95 291.469 439.95 365.336V454.536H461.284H482.617V481.869V509.202H434.75H386.75L386.35 392.802C385.817 277.602 385.817 276.402 382.884 265.869C368.884 215.336 327.15 182.402 276.617 182.002C267.017 182.002 258.35 182.802 251.284 184.402C237.95 187.336 216.35 197.736 205.95 206.136C183.017 224.802 167.817 253.336 165.417 282.536L164.617 292.536L137.684 292.936L110.617 293.202V284.802C110.617 257.069 124.217 218.936 142.884 193.869C159.284 172.002 184.617 151.869 209.284 141.069C241.017 127.336 273.95 123.869 308.617 130.802ZM295.55 302.536C330.35 319.736 329.95 368.269 294.884 385.469C287.017 389.336 284.75 389.869 275.284 389.869C265.817 389.869 263.55 389.336 255.684 385.469C245.817 380.669 237.95 372.669 233.017 362.802C228.617 353.736 228.617 334.002 233.017 325.069C245.15 300.669 271.95 290.936 295.55 302.536Z" fill="#3F5298"/>
</svg>
